<?xml version="1.0" encoding="UTF-8" standalone="no"?>
<!-- Created with Inkscape (http://www.inkscape.org/) -->

<svg
   width="50mm"
   height="50mm"
   viewBox="0 0 50 50"
   version="1.1"
   id="svg1"
   xmlns="http://www.w3.org/2000/svg"
   xmlns:svg="http://www.w3.org/2000/svg">
  <defs
     id="defs1" />
  <g
     id="layer1">
    <rect
       style="fill:#54abbf;fill-rule:evenodd;stroke:#164450;stroke-width:5.75758;stroke-linecap:round;paint-order:markers stroke fill;fill-opacity:1"
       id="rect1"
       width="44.242424"
       height="44.242424"
       x="2.878788"
       y="2.878788"
       ry="10.52753" />
  </g>
  <path
     d="m 24.863599,12.060763 c -5.7414,0 -10.363709,4.621791 -10.363709,10.363191 v 2.300118 5.820834 2.374532 c -1e-5,0.794242 0.267867,1.524144 0.713652,2.111499 0.185195,0.244008 0.400556,0.462656 0.642338,0.650606 0.592687,0.460728 1.335221,0.737949 2.144055,0.737939 1.138789,1.5e-5 2.147223,-0.546393 2.786393,-1.388545 0.445785,-0.587355 0.713662,-1.317257 0.713652,-2.111499 -10e-6,0.794242 0.267866,1.524144 0.713651,2.111499 0.63917,0.842152 1.647603,1.38856 2.786393,1.388545 1.13879,1.5e-5 2.147224,-0.546393 2.786394,-1.388545 0.445785,-0.587355 0.713661,-1.317257 0.713651,-2.111499 -10e-6,0.794242 0.267867,1.524144 0.713652,2.111499 0.63917,0.842152 1.647603,1.38856 2.786393,1.388545 0.808833,10e-6 1.551368,-0.277211 2.144055,-0.737939 0.241782,-0.18795 0.457143,-0.406598 0.642338,-0.650606 0.445785,-0.587355 0.713662,-1.317257 0.713652,-2.111499 v -2.374532 -5.820834 -2.300118 c 0,-5.7414 -4.622309,-10.363191 -10.363709,-10.363191 z"
     style="fill:#164450;fill-rule:evenodd;stroke-width:4.47779;stroke-linecap:round;paint-order:markers stroke fill"
     id="path5" />
</svg>
