<?xml version="1.0" encoding="UTF-8" standalone="no"?>
<!-- Created with Inkscape (http://www.inkscape.org/) -->

<svg
   width="50mm"
   height="50mm"
   viewBox="0 0 50 50"
   version="1.1"
   id="svg1"
   xmlns="http://www.w3.org/2000/svg"
   xmlns:svg="http://www.w3.org/2000/svg">
  <defs
     id="defs1" />
  <g
     id="layer1">
    <g
       id="g3"
       transform="rotate(90,25,25)">
      <rect
         style="fill:#54abbf;fill-opacity:1;fill-rule:evenodd;stroke:#164450;stroke-width:5.75758;stroke-linecap:round;paint-order:markers stroke fill"
         id="rect1"
         width="44.242424"
         height="44.242424"
         x="2.878788"
         y="2.878788"
         ry="10.52753" />
      <path
         d="m 25.007251,10.908239 c -1.296648,0.05486 -6.597229,7.24569 -7.246586,8.089946 -0.603798,0.785023 -5.915117,7.404017 -5.253426,8.162292 0.296514,0.339796 2.387639,0.506895 4.799707,0.592212 v 9.359636 c 0,1.096662 0.883061,1.979724 1.979724,1.979724 h 11.427209 c 1.096663,0 1.979208,-0.883062 1.979208,-1.979724 v -9.348267 c 2.418365,-0.08027 4.574109,-0.246432 4.814176,-0.603581 0.585031,-0.87035 -5.060896,-7.911795 -5.710246,-8.756054 -0.603791,-0.785027 -5.58409,-7.547195 -6.789766,-7.496184 z"
         style="fill:#164450;fill-rule:evenodd;stroke-width:4.99999;stroke-linecap:round;paint-order:markers stroke fill"
         id="path3" />
      <path
         d="m 25.007251,10.908239 c -1.296648,0.05486 -6.597229,7.24569 -7.246586,8.089946 -0.603798,0.785023 -5.915117,7.404017 -5.253426,8.162292 0.296514,0.339796 2.387639,0.506895 4.799707,0.592212 v 9.359636 c 0,1.096662 0.883061,1.979724 1.979724,1.979724 h 11.427209 c 1.096663,0 1.979208,-0.883062 1.979208,-1.979724 v -9.348267 c 2.418365,-0.08027 4.574109,-0.246432 4.814176,-0.603581 0.585031,-0.87035 -5.060896,-7.911795 -5.710246,-8.756054 -0.603791,-0.785027 -5.58409,-7.547195 -6.789766,-7.496184 z"
         style="fill:#164450;fill-rule:evenodd;stroke-width:4.99999;stroke-linecap:round;paint-order:markers stroke fill"
         id="path4" />
    </g>
  </g>
</svg>
